<?xml version="1.0" encoding="UTF-8"?>
<svg width="512" height="512" viewBox="0 0 512 512" fill="none" xmlns="http://www.w3.org/2000/svg">
  <!-- 背景圆形 -->
  <circle cx="256" cy="256" r="240" fill="#4096ff" />
  <circle cx="256" cy="256" r="220" fill="white" />
  
  <!-- Todo List 图标 -->
  <rect x="136" y="136" width="240" height="320" rx="20" fill="#f5f5f5" stroke="#1677ff" stroke-width="8" />
  
  <!-- 清单线条 -->
  <line x1="172" y1="200" x2="340" y2="200" stroke="#bfbfbf" stroke-width="4" />
  <line x1="172" y1="240" x2="340" y2="240" stroke="#bfbfbf" stroke-width="4" />
  <line x1="172" y1="280" x2="340" y2="280" stroke="#bfbfbf" stroke-width="4" />
  <line x1="172" y1="320" x2="340" y2="320" stroke="#bfbfbf" stroke-width="4" />
  <line x1="172" y1="360" x2="340" y2="360" stroke="#bfbfbf" stroke-width="4" />
  
  <!-- 已完成的勾选框 -->
  <rect x="172" y="180" width="20" height="20" rx="2" fill="#f5f5f5" stroke="#1677ff" stroke-width="2" />
  <polyline points="176,190 182,196 188,184" stroke="#1677ff" stroke-width="3" stroke-linecap="round" stroke-linejoin="round" />
  
  <!-- 未完成的勾选框 -->
  <rect x="172" y="220" width="20" height="20" rx="2" fill="#f5f5f5" stroke="#1677ff" stroke-width="2" />
  <rect x="172" y="260" width="20" height="20" rx="2" fill="#f5f5f5" stroke="#1677ff" stroke-width="2" />
  
  <!-- 另一个已完成的勾选框 -->
  <rect x="172" y="300" width="20" height="20" rx="2" fill="#f5f5f5" stroke="#1677ff" stroke-width="2" />
  <polyline points="176,310 182,316 188,304" stroke="#1677ff" stroke-width="3" stroke-linecap="round" stroke-linejoin="round" />
  
  <!-- 未完成的勾选框 -->
  <rect x="172" y="340" width="20" height="20" rx="2" fill="#f5f5f5" stroke="#1677ff" stroke-width="2" />
</svg>
